HIERARCHY
ROOT Hips
{
	OFFSET 0.000000 83.214638 0.000000
	CHANNELS 6 Xposition Yposition Zposition Xrotation Yrotation Zrotation
	JOINT Pelvis
	{
		OFFSET 0.000000 0.000000 0.000000
		CHANNELS 3 Xrotation Yrotation Zrotation
		JOINT LeftUpLeg
		{
			OFFSET 8.479700 -4.795502 -0.379100
			CHANNELS 3 Xrotation Yrotation Zrotation
			JOINT LeftLeg
			{
				OFFSET 0.024144 -32.555107 0.112900
				CHANNELS 3 Xrotation Yrotation Zrotation
				JOINT LeftFoot
				{
					OFFSET -0.024144 -32.638630 -3.012600
					CHANNELS 3 Xrotation Yrotation Zrotation
					JOINT LeftToeBase
					{
						OFFSET 0.970200 -13.225400 11.864200
						CHANNELS 3 Xrotation Yrotation Zrotation
						End Site
						{
							OFFSET 0.000000 12.319262 0.000000
						}
					}
					JOINT LFootTongue
					{
						OFFSET 1.142400 -1.059800 6.665200
						CHANNELS 3 Xrotation Yrotation Zrotation
						End Site
						{
							OFFSET 0.000000 12.319262 0.000000
						}
					}
				}
				JOINT LeftPantLeg
				{
					OFFSET 0.918482 -16.533964 -2.284700
					CHANNELS 3 Xrotation Yrotation Zrotation
					End Site
					{
						OFFSET 0.350399 24.744368 0.000000
					}
				}
			}
		}
		JOINT RightUpLeg
		{
			OFFSET -8.479700 -4.795502 -0.379100
			CHANNELS 3 Xrotation Yrotation Zrotation
			JOINT RightLeg
			{
				OFFSET -0.023144 -32.555092 0.112900
				CHANNELS 3 Xrotation Yrotation Zrotation
				JOINT RightFoot
				{
					OFFSET 0.023144 -32.638641 -3.012700
					CHANNELS 3 Xrotation Yrotation Zrotation
					JOINT RightToeBase
					{
						OFFSET -0.970200 -13.225400 11.864200
						CHANNELS 3 Xrotation Yrotation Zrotation
						End Site
						{
							OFFSET 0.000000 12.319244 0.000000
						}
					}
					JOINT RFootTongue
					{
						OFFSET -1.142200 -1.059800 6.665200
						CHANNELS 3 Xrotation Yrotation Zrotation
						End Site
						{
							OFFSET 0.000000 12.319243 0.000000
						}
					}
				}
				JOINT RightPantLeg
				{
					OFFSET -0.919482 -16.533978 -2.284800
					CHANNELS 3 Xrotation Yrotation Zrotation
					End Site
					{
						OFFSET -0.350400 24.744419 0.000000
					}
				}
			}
		}
	}
	JOINT Spine
	{
		OFFSET 0.000000 7.722000 1.166200
		CHANNELS 3 Xrotation Yrotation Zrotation
		JOINT Spine1
		{
			OFFSET 0.000000 12.024101 0.248800
			CHANNELS 3 Xrotation Yrotation Zrotation
			JOINT Spine2
			{
				OFFSET 0.000000 11.502998 -0.491200
				CHANNELS 3 Xrotation Yrotation Zrotation
				JOINT Neck
				{
					OFFSET 0.000000 18.430702 -3.123100
					CHANNELS 3 Xrotation Yrotation Zrotation
					JOINT Head
					{
						OFFSET 0.000000 9.051102 1.034000
						CHANNELS 3 Xrotation Yrotation Zrotation
						JOINT HairB
						{
							OFFSET 0.208400 24.786102 24.822300
							CHANNELS 3 Xrotation Yrotation Zrotation
							End Site
							{
								OFFSET 0.000000 32.263779 0.000000
							}
						}
						JOINT HairA
						{
							OFFSET -7.081100 24.428299 23.196600
							CHANNELS 3 Xrotation Yrotation Zrotation
							End Site
							{
								OFFSET 0.000000 32.263779 0.000000
							}
						}
						JOINT Hat
						{
							OFFSET 16.728800 15.048294 -15.439601
							CHANNELS 3 Xrotation Yrotation Zrotation
							End Site
							{
								OFFSET 0.000000 32.263779 0.000000
							}
						}
					}
				}
				JOINT LeftShoulder
				{
					OFFSET 6.197800 13.665199 -4.064700
					CHANNELS 3 Xrotation Yrotation Zrotation
					JOINT LeftArm
					{
						OFFSET 7.778100 -0.187103 -1.709300
						CHANNELS 3 Xrotation Yrotation Zrotation
						JOINT LeftForeArm
						{
							OFFSET 22.049376 0.000000 0.000000
							CHANNELS 3 Xrotation Yrotation Zrotation
							JOINT LeftHand
							{
								OFFSET 23.009392 0.000000 0.000000
								CHANNELS 3 Xrotation Yrotation Zrotation
								JOINT LeftHandThumb1
								{
									OFFSET 3.507191 -2.063065 3.133727
									CHANNELS 3 Xrotation Yrotation Zrotation
									JOINT LeftHandThumb2
									{
										OFFSET 3.101337 -1.790558 1.790558
										CHANNELS 3 Xrotation Yrotation Zrotation
										JOINT LeftHandThumb3
										{
											OFFSET 3.058640 -1.765907 1.765906
											CHANNELS 3 Xrotation Yrotation Zrotation
											End Site
											{
												OFFSET -0.415260 3.926476 -0.049563
											}
										}
									}
								}
								JOINT LeftHandIndex1
								{
									OFFSET 11.334419 -0.901459 3.706815
									CHANNELS 3 Xrotation Yrotation Zrotation
									JOINT LeftHandIndex2
									{
										OFFSET 3.283112 0.000000 0.000000
										CHANNELS 3 Xrotation Yrotation Zrotation
										JOINT LeftHandIndex3
										{
											OFFSET 3.323853 0.000000 0.000000
											CHANNELS 3 Xrotation Yrotation Zrotation
											End Site
											{
												OFFSET -1.135597 3.097809 0.402452
											}
										}
									}
								}
								JOINT LeftHandMiddle1
								{
									OFFSET 11.335861 0.000000 0.000000
									CHANNELS 3 Xrotation Yrotation Zrotation
									JOINT LeftHandMiddle2
									{
										OFFSET 3.410492 0.000000 0.000000
										CHANNELS 3 Xrotation Yrotation Zrotation
										JOINT LeftHandMiddle3
										{
											OFFSET 3.312172 0.000000 0.000000
											CHANNELS 3 Xrotation Yrotation Zrotation
											End Site
											{
												OFFSET -1.150200 3.080154 0.400270
											}
										}
									}
								}
								JOINT LeftHandRing1
								{
									OFFSET 11.514786 -0.013176 -3.003090
									CHANNELS 3 Xrotation Yrotation Zrotation
									JOINT LeftHandRing2
									{
										OFFSET 3.053307 0.000000 0.000000
										CHANNELS 3 Xrotation Yrotation Zrotation
										JOINT LeftHandRing3
										{
											OFFSET 3.295807 0.000000 0.000000
											CHANNELS 3 Xrotation Yrotation Zrotation
											End Site
											{
												OFFSET -1.281006 3.013344 0.375733
											}
										}
									}
								}
								JOINT LeftHandPinky1
								{
									OFFSET 10.518692 -0.960396 -5.730441
									CHANNELS 3 Xrotation Yrotation Zrotation
									JOINT LeftHandPinky2
									{
										OFFSET 2.861649 0.000000 0.000000
										CHANNELS 3 Xrotation Yrotation Zrotation
										JOINT LeftHandPinky3
										{
											OFFSET 2.863380 0.000000 0.000000
											CHANNELS 3 Xrotation Yrotation Zrotation
											End Site
											{
												OFFSET -0.843597 2.711159 0.369971
											}
										}
									}
								}
							}
							JOINT LSleeve
							{
								OFFSET 6.676277 -0.344902 -1.011730
								CHANNELS 3 Xrotation Yrotation Zrotation
								End Site
								{
									OFFSET 0.000000 14.885353 0.000000
								}
							}
						}
					}
				}
				JOINT RightShoulder
				{
					OFFSET -6.197800 13.665199 -4.064700
					CHANNELS 3 Xrotation Yrotation Zrotation
					JOINT RightArm
					{
						OFFSET -7.778100 -0.187103 -1.709300
						CHANNELS 3 Xrotation Yrotation Zrotation
						JOINT RightForeArm
						{
							OFFSET -22.049376 0.000000 0.000000
							CHANNELS 3 Xrotation Yrotation Zrotation
							JOINT RightHand
							{
								OFFSET -23.009392 0.000000 0.000000
								CHANNELS 3 Xrotation Yrotation Zrotation
								JOINT RightHandThumb1
								{
									OFFSET -3.507191 -2.063065 3.133727
									CHANNELS 3 Xrotation Yrotation Zrotation
									JOINT RightHandThumb2
									{
										OFFSET -3.101337 -1.790558 1.790558
										CHANNELS 3 Xrotation Yrotation Zrotation
										JOINT RightHandThumb3
										{
											OFFSET -3.058640 -1.765907 1.765906
											CHANNELS 3 Xrotation Yrotation Zrotation
											End Site
											{
												OFFSET 0.415260 3.926476 -0.049563
											}
										}
									}
								}
								JOINT RightHandIndex1
								{
									OFFSET -11.334419 -0.901459 3.706815
									CHANNELS 3 Xrotation Yrotation Zrotation
									JOINT RightHandIndex2
									{
										OFFSET -3.283112 0.000000 0.000000
										CHANNELS 3 Xrotation Yrotation Zrotation
										JOINT RightHandIndex3
										{
											OFFSET -3.323853 0.000000 0.000000
											CHANNELS 3 Xrotation Yrotation Zrotation
											End Site
											{
												OFFSET 1.135597 3.097809 0.402452
											}
										}
									}
								}
								JOINT RightHandMiddle1
								{
									OFFSET -11.335861 0.000000 0.000000
									CHANNELS 3 Xrotation Yrotation Zrotation
									JOINT RightHandMiddle2
									{
										OFFSET -3.410492 0.000000 0.000000
										CHANNELS 3 Xrotation Yrotation Zrotation
										JOINT RightHandMiddle3
										{
											OFFSET -3.312172 0.000000 0.000000
											CHANNELS 3 Xrotation Yrotation Zrotation
											End Site
											{
												OFFSET 1.150200 3.080154 0.400270
											}
										}
									}
								}
								JOINT RightHandRing1
								{
									OFFSET -11.514786 -0.013176 -3.003090
									CHANNELS 3 Xrotation Yrotation Zrotation
									JOINT RightHandRing2
									{
										OFFSET -3.053307 0.000000 0.000000
										CHANNELS 3 Xrotation Yrotation Zrotation
										JOINT RightHandRing3
										{
											OFFSET -3.295807 0.000000 0.000000
											CHANNELS 3 Xrotation Yrotation Zrotation
											End Site
											{
												OFFSET 1.281006 3.013344 0.375733
											}
										}
									}
								}
								JOINT RightHandPinky1
								{
									OFFSET -10.518692 -0.960396 -5.730441
									CHANNELS 3 Xrotation Yrotation Zrotation
									JOINT RightHandPinky2
									{
										OFFSET -2.861649 0.000000 0.000000
										CHANNELS 3 Xrotation Yrotation Zrotation
										JOINT RightHandPinky3
										{
											OFFSET -2.863380 0.000000 0.000000
											CHANNELS 3 Xrotation Yrotation Zrotation
											End Site
											{
												OFFSET 0.843597 2.711159 0.369971
											}
										}
									}
								}
							}
							JOINT RSleeve
							{
								OFFSET -6.676277 -0.344902 -1.011730
								CHANNELS 3 Xrotation Yrotation Zrotation
								End Site
								{
									OFFSET 0.000000 14.885353 0.000000
								}
							}
						}
					}
				}
				JOINT Backpack
				{
					OFFSET 0.000000 -2.471497 36.677502
					CHANNELS 3 Xrotation Yrotation Zrotation
					End Site
					{
						OFFSET 0.000000 20.427315 0.000000
					}
				}
				JOINT Hood
				{
					OFFSET 0.000000 18.754097 -10.431000
					CHANNELS 3 Xrotation Yrotation Zrotation
					JOINT Hood1
					{
						OFFSET 0.000000 -5.011002 -7.685901
						CHANNELS 3 Xrotation Yrotation Zrotation
						End Site
						{
							OFFSET 0.000000 9.175140 0.000000
						}
					}
				}
				JOINT LHoodieString
				{
					OFFSET 5.250500 16.397697 3.089900
					CHANNELS 3 Xrotation Yrotation Zrotation
					JOINT LHoodieString1
					{
						OFFSET 0.257700 -6.364304 3.694600
						CHANNELS 3 Xrotation Yrotation Zrotation
						JOINT LHoodieString2
						{
							OFFSET 0.000000 -9.643799 2.679100
							CHANNELS 3 Xrotation Yrotation Zrotation
							End Site
							{
								OFFSET 0.000000 10.009018 0.000000
							}
						}
					}
				}
				JOINT RHoodieString
				{
					OFFSET -5.250500 16.397697 3.089900
					CHANNELS 3 Xrotation Yrotation Zrotation
					JOINT RHoodieString1
					{
						OFFSET -0.257700 -6.364304 3.694600
						CHANNELS 3 Xrotation Yrotation Zrotation
						JOINT RHoodieString2
						{
							OFFSET 0.000000 -9.643799 2.679100
							CHANNELS 3 Xrotation Yrotation Zrotation
							End Site
							{
								OFFSET 0.000000 10.009018 0.000000
							}
						}
					}
				}
			}
			JOINT LBackpack_Strap
			{
				OFFSET 15.223200 -7.719803 -6.610900
				CHANNELS 3 Xrotation Yrotation Zrotation
				End Site
				{
					OFFSET 0.000000 16.040596 0.000000
				}
			}
			JOINT RBackpack_Strap
			{
				OFFSET -15.223000 -7.719803 -6.610900
				CHANNELS 3 Xrotation Yrotation Zrotation
				End Site
				{
					OFFSET 0.000000 16.040596 0.000000
				}
			}
		}
	}
	JOINT BoyFacialAnim_Joint
	{
		OFFSET 1.000000 -82.208099 -1.550900
		CHANNELS 3 Xrotation Yrotation Zrotation
		End Site
		{
			OFFSET 0.000000 30.012791 0.000000
		}
	}
}
MOTION
Frames: 4
Frame Time: 0.016667
-0.111289 82.529129 0.476785 -4.056191 6.163073 -1.770214 -0.000000 -0.000000 0.000000 -2.723325 10.918813 10.710329 9.778209 -6.614957 0.228496 -4.247485 0.656825 -6.983622 -0.000000 0.000000 0.000000 -0.000000 0.000000 0.000000 -0.000000 -0.000000 -0.000000 -0.917443 -5.950620 1.782921 8.508449 3.375320 -0.628120 -3.345367 0.080652 0.308209 -0.000000 0.000000 -0.000000 -0.000000 0.000000 -0.000000 -0.000000 -0.000000 -0.000000 4.903450 -0.349196 1.226947 5.814410 -0.121265 1.891506 -4.300225 -0.608023 -1.115061 1.349176 -1.122403 0.966674 4.180455 -0.441329 -1.260370 0.000001 0.000000 0.000000 0.000001 0.000000 0.000000 0.000001 0.000000 0.000000 1.687483 -7.781252 -3.494998 -0.672287 -2.004150 -76.954164 6.346021 -10.905147 1.751695 -0.215852 -0.744257 3.407805 -3.779742 8.457874 12.348764 7.439543 11.617310 -1.292640 0.000000 -0.000000 0.000002 2.384576 3.620161 -6.815694 -0.007827 0.227208 -17.103478 -0.000000 -0.000000 -0.000000 -1.935783 5.644691 -11.386976 0.112458 0.632663 -24.767786 -0.000000 -0.000001 -0.000003 -4.873119 10.020113 -7.875463 -0.031555 0.293306 -30.086208 -0.000003 0.000001 0.000001 -6.437531 11.282632 -19.770927 0.029279 0.211161 -30.857651 -0.000001 -0.000001 -0.000002 0.000001 -0.000001 0.000000 2.069732 10.207990 4.096301 1.439769 3.704605 75.273910 15.720235 15.338361 -4.555469 -4.669805 -0.553078 -0.689272 -0.464229 -8.992537 -6.084864 7.444317 -11.614477 1.291700 -0.000000 -0.000000 0.000001 2.415132 -3.647878 8.343608 -0.045902 -0.188515 18.630256 -0.000003 -0.000000 0.000002 -1.985505 -5.700680 13.541330 0.094748 -0.637368 26.924148 -0.000002 -0.000000 0.000002 -4.982041 -10.062145 10.706135 -0.023918 -0.331178 32.937385 0.000002 -0.000000 0.000002 -6.468517 -11.288228 23.243655 0.067367 -0.216419 34.333264 -0.000001 0.000000 0.000002 0.000002 -0.000000 0.000000 -0.000000 -0.000000 -0.000000 -0.000000 -0.000000 -0.000000 -0.000000 -0.000000 -0.000000 -0.000000 -0.000000 -0.000000 -0.000000 -0.000000 -0.000000 -0.000000 -0.000000 -0.000000 -0.000000 -0.000000 -0.000000 -0.000000 -0.000000 -0.000000 -0.000000 -0.000000 -0.000000 -0.000000 -0.000000 -0.000000 -0.000000 -0.000000 -0.000000 -0.000000 -0.000000 0.000000 
0.008693 82.528610 0.526764 -4.000551 6.043717 -1.782235 -0.000000 0.000000 0.000000 -2.739120 10.882018 10.605631 9.921222 -6.496068 0.243147 -4.396612 0.707848 -6.897472 -0.000000 0.000000 0.000000 -0.000000 0.000000 0.000000 -0.000000 -0.000001 -0.000001 -0.933548 -5.961489 1.681660 8.490966 3.403126 -0.628039 -3.392444 0.128659 0.428839 -0.000000 -0.000000 -0.000000 -0.000000 -0.000000 -0.000000 0.000000 0.000000 0.000000 4.886024 -0.327671 1.185050 5.821196 -0.106784 1.917306 -4.288223 -0.596360 -1.086638 1.375391 -1.125630 0.914276 4.107036 -0.471391 -1.182772 -0.000000 -0.000000 -0.000000 -0.000000 -0.000000 -0.000000 -0.000000 -0.000000 -0.000000 1.710091 -7.716843 -3.464170 -0.640205 -1.994684 -77.013156 6.401013 -10.925486 1.756949 -0.211699 -0.779959 3.402852 -3.770354 8.494628 12.357311 7.410619 11.555744 -1.302240 0.000000 0.000000 -0.000001 2.365566 3.558895 -6.752266 -0.007895 0.227190 -17.059734 -0.000000 0.000000 -0.000002 -1.944302 5.590017 -11.373862 0.112402 0.632617 -24.756946 0.000000 0.000000 0.000000 -4.874987 9.973662 -7.908313 -0.031575 0.293458 -30.105230 -0.000002 0.000000 -0.000000 -6.427774 11.248480 -19.851970 0.029337 0.211365 -30.908771 0.000001 0.000000 0.000003 -0.000001 0.000002 0.000000 2.108044 10.186227 3.925885 1.704445 4.137058 75.329405 15.726306 16.016517 -5.167379 -4.943582 -0.670162 -0.596686 -0.464273 -8.992507 -6.084821 7.444342 -11.614552 1.291596 -0.000004 -0.000001 -0.000001 2.415115 -3.647896 8.343642 -0.045922 -0.188498 18.630248 -0.000001 0.000000 0.000004 -1.985556 -5.700733 13.541252 0.094746 -0.637336 26.924228 -0.000000 -0.000001 0.000003 -4.982030 -10.062135 10.706144 -0.024004 -0.331204 32.937368 -0.000002 -0.000000 0.000000 -6.468519 -11.288262 23.243624 0.067325 -0.216381 34.333288 0.000003 -0.000000 -0.000002 0.000003 -0.000000 -0.000001 0.000000 0.000000 0.000000 0.000000 0.000000 0.000000 0.000000 0.000000 0.000000 0.000000 0.000000 0.000000 0.000000 0.000000 0.000000 -0.000000 -0.000000 0.000000 0.000000 0.000000 0.000000 0.000000 0.000000 0.000000 -0.000000 -0.000000 0.000000 -0.000000 0.000000 -0.000000 -0.000000 0.000000 -0.000000 -0.000000 0.000000 0.000000 
0.140595 82.526855 0.598562 -3.998211 5.938328 -1.765045 -0.000000 0.000000 0.000000 -2.671275 10.904143 10.475175 10.035404 -6.424039 0.250847 -4.554349 0.740656 -6.797738 -0.000000 0.000000 0.000000 -0.000000 0.000000 0.000000 -0.000001 -0.000001 0.000001 -0.911322 -6.006391 1.560241 8.543467 3.533843 -0.645283 -3.480850 0.131270 0.531195 0.000000 -0.000000 -0.000000 0.000000 -0.000000 -0.000000 0.000000 -0.000000 0.000000 4.953213 -0.314734 1.114903 5.780768 -0.096299 1.938783 -4.313797 -0.587795 -1.059324 1.415384 -1.142936 0.891898 4.072204 -0.494248 -1.181360 0.000000 -0.000000 -0.000000 0.000000 -0.000000 -0.000000 0.000000 -0.000000 -0.000000 1.725176 -7.668270 -3.419643 -0.663470 -1.883000 -77.088957 6.401420 -10.863922 1.697796 -0.197289 -0.886258 3.455027 -3.774912 8.496030 12.356103 7.405261 11.551447 -1.297600 0.000000 -0.000001 -0.000005 2.390004 3.891192 -6.747925 -0.007882 0.227178 -17.044194 -0.000001 -0.000002 -0.000002 -1.920723 5.826083 -11.342093 0.112326 0.632560 -24.738942 -0.000001 0.000000 0.000002 -4.854165 10.148930 -7.869570 -0.031525 0.293376 -30.088100 -0.000000 -0.000000 -0.000002 -6.387989 11.353684 -19.828809 0.029401 0.211327 -30.898652 -0.000000 -0.000001 0.000003 0.000001 0.000000 -0.000000 2.143771 10.163301 3.767666 1.868302 4.550496 75.382025 15.821525 16.571758 -5.763637 -5.230321 -0.788508 -0.468315 -0.464254 -8.992500 -6.084820 7.444321 -11.614510 1.291613 -0.000004 -0.000002 -0.000001 2.415135 -3.647879 8.343600 -0.045885 -0.188527 18.630229 -0.000000 0.000000 0.000002 -1.985488 -5.700720 13.541305 0.094753 -0.637315 26.924181 -0.000001 0.000001 0.000003 -4.982008 -10.062159 10.706090 -0.023980 -0.331202 32.937423 0.000001 -0.000000 0.000002 -6.468508 -11.288273 23.243634 0.067385 -0.216365 34.333298 0.000001 -0.000002 -0.000000 0.000000 0.000002 -0.000000 0.000000 -0.000000 -0.000000 0.000000 -0.000000 -0.000000 0.000000 -0.000000 -0.000000 0.000000 -0.000000 -0.000000 0.000000 -0.000000 -0.000000 0.000000 -0.000000 -0.000000 0.000000 -0.000000 -0.000000 0.000000 -0.000000 -0.000000 0.000000 -0.000000 -0.000000 0.000000 0.000000 -0.000000 0.000000 0.000000 -0.000000 -0.000000 0.000000 0.000000 
0.287149 82.523956 0.661704 -3.911320 5.839941 -1.775133 0.000000 0.000000 0.000000 -2.722303 10.820901 10.335817 10.224761 -6.271291 0.279786 -4.738016 0.785092 -6.698399 -0.000000 0.000001 -0.000000 -0.000000 0.000001 -0.000000 -0.000001 0.000000 -0.000000 -0.969668 -6.036316 1.437049 8.568387 3.587733 -0.647490 -3.552367 0.145318 0.641158 -0.000000 0.000000 0.000000 -0.000000 0.000000 0.000000 0.000000 -0.000000 -0.000000 4.912521 -0.305340 1.111382 5.773951 -0.091454 1.936356 -4.297131 -0.582285 -1.054468 1.394790 -1.143805 0.871364 4.049760 -0.507420 -1.134739 0.000001 -0.000000 0.000000 0.000001 -0.000000 0.000000 0.000001 -0.000000 0.000000 1.736350 -7.615505 -3.398643 -0.683189 -1.787389 -77.118532 6.429663 -10.835441 1.658477 -0.182038 -0.982551 3.540800 -3.774024 8.519677 12.359895 7.396403 11.544274 -1.289687 -0.000001 -0.000001 -0.000003 2.376648 3.922603 -6.679062 -0.007979 0.227131 -16.995698 0.000000 0.000001 -0.000003 -1.916482 5.871976 -11.333412 0.112277 0.632536 -24.733662 -0.000000 -0.000001 -0.000002 -4.835759 10.220199 -7.914601 -0.031534 0.293557 -30.121776 -0.000002 -0.000001 -0.000002 -6.320899 11.443582 -19.933969 0.029591 0.211635 -30.970441 -0.000001 -0.000001 0.000003 0.000000 0.000001 -0.000000 2.177287 10.135590 3.620688 1.959051 4.933519 75.428935 15.740922 17.064225 -6.286247 -5.433540 -0.728883 -0.390494 -0.464230 -8.992516 -6.084875 7.444301 -11.614504 1.291622 0.000001 -0.000000 0.000001 2.415383 -3.653174 8.343844 -0.045933 -0.188520 18.630214 -0.000003 0.000000 0.000002 -1.985550 -5.700706 13.541235 0.094806 -0.637346 26.924245 -0.000001 -0.000001 0.000003 -4.982039 -10.062154 10.706141 -0.023984 -0.331160 32.937371 0.000006 -0.000002 -0.000002 -6.468539 -11.288237 23.243707 0.067344 -0.216396 34.333291 -0.000001 0.000000 0.000000 0.000000 0.000000 -0.000001 -0.000000 0.000000 -0.000000 -0.000000 0.000000 -0.000000 -0.000000 0.000000 -0.000000 -0.000000 0.000000 -0.000000 -0.000000 0.000000 -0.000000 -0.000000 -0.000000 -0.000000 -0.000000 0.000000 -0.000000 -0.000000 0.000000 -0.000000 -0.000000 -0.000000 -0.000000 -0.000000 0.000000 -0.000000 -0.000000 0.000000 -0.000000 0.000000 0.000000 0.000000 
